<svg width="65" height="91" viewBox="0 0 65 91" fill="none" xmlns="http://www.w3.org/2000/svg">
<path d="M61.7224 90.1265C62.1967 90.8056 63.1319 90.9717 63.811 90.4973C64.4902 90.023 64.6563 89.0879 64.1819 88.4087L61.7224 90.1265ZM45.9521 20.2676L47.2739 19.5584L45.9521 20.2676ZM1.04463 14.249C0.75825 15.0264 1.15626 15.8887 1.93361 16.1751L14.6013 20.8419C15.3787 21.1283 16.241 20.7303 16.5274 19.9529C16.8138 19.1756 16.4158 18.3132 15.6384 18.0269L4.37821 13.8786L8.52647 2.6184C8.81285 1.84104 8.41483 0.978716 7.63748 0.692339C6.86013 0.405961 5.9978 0.803976 5.71142 1.58133L1.04463 14.249ZM64.1819 88.4087C53.3984 72.9686 51.9496 61.1612 51.8271 50.6254C51.705 40.1158 52.9967 30.2237 47.2739 19.5584L44.6304 20.9768C49.9078 30.812 48.6996 39.67 48.8273 50.6602C48.9548 61.6242 50.5059 74.0665 61.7224 90.1265L64.1819 88.4087ZM47.2739 19.5584C41.3141 8.45133 29.5605 7.13268 19.891 8.34144C15.0093 8.95169 10.5005 10.2168 7.22258 11.3228C5.58035 11.8769 4.23912 12.3937 3.30504 12.7736C2.83783 12.9636 2.47199 13.1195 2.22077 13.2289C2.09514 13.2837 1.99812 13.3268 1.93138 13.3567C1.898 13.3717 1.8722 13.3834 1.85415 13.3916C1.84513 13.3957 1.83806 13.399 1.83295 13.4013C1.83039 13.4025 1.82832 13.4034 1.82675 13.4042C1.82597 13.4045 1.82517 13.4049 1.82477 13.4051C1.8241 13.4054 1.82354 13.4057 2.45215 14.7676C3.08076 16.1295 3.08046 16.1296 3.08027 16.1297C3.08037 16.1297 3.08031 16.1297 3.08052 16.1296C3.08092 16.1294 3.08182 16.129 3.08321 16.1284C3.08598 16.1271 3.0907 16.125 3.09734 16.1219C3.11063 16.1159 3.1316 16.1064 3.16005 16.0936C3.21696 16.0681 3.30378 16.0294 3.41888 15.9793C3.64909 15.879 3.99224 15.7327 4.43518 15.5526C5.3214 15.1922 6.60516 14.6972 8.18165 14.1653C11.3412 13.0993 15.6448 11.8956 20.2631 11.3183C29.5936 10.1519 39.59 11.5832 44.6304 20.9768L47.2739 19.5584Z" fill="#B99ED9"/>
</svg>
