<svg width="113" height="45" viewBox="0 0 113 45" fill="none" xmlns="http://www.w3.org/2000/svg">
<path d="M2.92532 0.542072C2.2733 0.0310309 1.33046 0.145315 0.819416 0.797334C0.308375 1.44935 0.422659 2.3922 1.07468 2.90324L2.92532 0.542072ZM63.5 7.22267L62.9996 5.80858L63.5 7.22267ZM102.619 43.9382C103.29 44.4244 104.228 44.2748 104.714 43.604L112.637 32.6732C113.123 32.0024 112.973 31.0645 112.302 30.5783C111.632 30.0922 110.694 30.2418 110.208 30.9126L103.165 40.6289L93.449 33.5866C92.7783 33.1005 91.8404 33.2501 91.3542 33.9209C90.868 34.5916 91.0177 35.5295 91.6885 36.0157L102.619 43.9382ZM1.07468 2.90324C10.3843 10.2 17.9079 14.6661 27.3344 15.7135C36.6946 16.7535 47.7202 14.3974 64.0004 8.63675L62.9996 5.80858C46.7798 11.5479 36.3054 13.6918 27.6656 12.7318C19.0921 11.7792 12.1157 7.74532 2.92532 0.542072L1.07468 2.90324ZM64.0004 8.63675C71.767 5.88855 77.8901 6.66857 82.7596 9.2441C87.6881 11.8508 91.4944 16.3843 94.3873 21.4091C97.2738 26.4227 99.1863 31.813 100.378 35.9726C100.972 38.0474 101.384 39.8042 101.647 41.0386C101.778 41.6556 101.872 42.1413 101.932 42.4703C101.962 42.6347 101.984 42.7599 101.999 42.8426C102.006 42.884 102.011 42.9147 102.014 42.9344C102.016 42.9443 102.017 42.9514 102.018 42.9557C102.018 42.9578 102.018 42.9592 102.018 42.96C102.018 42.9604 102.018 42.9604 102.018 42.9606C102.018 42.9604 102.018 42.9601 103.5 42.7237C104.981 42.4874 104.981 42.4867 104.981 42.4858C104.981 42.4853 104.98 42.4842 104.98 42.4831C104.98 42.481 104.979 42.4782 104.979 42.4746C104.978 42.4676 104.976 42.4576 104.974 42.4449C104.97 42.4196 104.964 42.3831 104.956 42.3358C104.939 42.2414 104.915 42.1041 104.883 41.9271C104.817 41.5731 104.718 41.0603 104.581 40.4146C104.306 39.1235 103.878 37.2982 103.262 35.1464C102.032 30.8527 100.038 25.2114 96.9872 19.9123C93.9428 14.6243 89.7805 9.56377 84.1622 6.59219C78.4849 3.5894 71.483 2.80678 62.9996 5.80858L64.0004 8.63675Z" fill="#B99ED9"/>
</svg>
