<svg width="57" height="89" viewBox="0 0 57 89" fill="none" xmlns="http://www.w3.org/2000/svg">
<path d="M31.7383 2.47462C32.0002 1.6887 31.5755 0.839222 30.7896 0.577254C30.0037 0.315281 29.1542 0.740019 28.8922 1.52593L31.7383 2.47462ZM54.315 55.9994L55.7685 56.3699L54.315 55.9994ZM0.87513 75.3299C0.22947 75.849 0.126842 76.7932 0.645897 77.4388L9.10439 87.9604C9.62345 88.6061 10.5676 88.7087 11.2133 88.1897C11.8589 87.6706 11.9616 86.7264 11.4425 86.0808L3.92386 76.7282L13.2764 69.2096C13.922 68.6905 14.0247 67.7463 13.5056 67.1007C12.9866 66.455 12.0424 66.3524 11.3967 66.8714L0.87513 75.3299ZM28.8922 1.52593C26.5179 8.64872 27.3203 14.2357 29.862 18.9534C32.3463 23.5647 36.4497 27.247 40.3907 30.6915C44.4163 34.21 48.2699 37.4805 50.7774 41.4083C53.2179 45.231 54.3773 49.6824 52.8615 55.6289L55.7685 56.3699C57.5028 49.5666 56.1624 44.2681 53.306 39.7939C50.5168 35.4248 46.2767 31.8516 42.3649 28.4327C38.3685 24.9398 34.6906 21.5909 32.5031 17.5305C30.3729 13.5766 29.6127 8.85137 31.7383 2.47462L28.8922 1.52593ZM52.8615 55.6289C49.8595 67.4055 37.6586 72.3999 25.3942 74.3298C19.3499 75.2809 13.4883 75.4515 9.12789 75.382C6.95066 75.3473 5.15483 75.2529 3.90659 75.1675C3.28262 75.1249 2.79592 75.0845 2.4673 75.0549C2.303 75.0402 2.17826 75.0282 2.09568 75.0199C2.05439 75.0158 2.02364 75.0127 2.00376 75.0106C1.99382 75.0096 1.98659 75.0088 1.98213 75.0083C1.9799 75.0081 1.97835 75.0079 1.97751 75.0078C1.97708 75.0078 1.97697 75.0078 1.97676 75.0078C1.97682 75.0078 1.97705 75.0078 1.81496 76.499C1.65287 77.9902 1.65346 77.9903 1.65422 77.9904C1.6547 77.9904 1.65564 77.9905 1.65661 77.9906C1.65857 77.9908 1.66121 77.9911 1.66456 77.9915C1.67124 77.9922 1.6807 77.9932 1.69289 77.9945C1.71728 77.997 1.75261 78.0006 1.79856 78.0052C1.89044 78.0143 2.02479 78.0273 2.19899 78.0429C2.54737 78.0742 3.0553 78.1163 3.70183 78.1606C4.99459 78.249 6.84328 78.346 9.0801 78.3816C13.5478 78.4528 19.5924 78.2797 25.8606 77.2934C38.2211 75.3483 52.2703 70.093 55.7685 56.3699L52.8615 55.6289Z" fill="#B99ED9"/>
</svg>
